<svg version="1.1" xmlns="http://www.w3.org/2000/svg" xmlns:xlink="http://www.w3.org/1999/xlink" width="85.56219" height="117.97268" viewBox="0,0,85.56219,117.97268"><g transform="translate(-192.32102,-112.36888)"><g stroke-miterlimit="10"><text transform="translate(199.32013,133.81888) scale(0.5,0.5)" font-size="40" xml:space="preserve" fill="#ff0000" fill-rule="nonzero" stroke="none" stroke-width="1" stroke-linecap="butt" stroke-linejoin="miter" font-family="Sans Serif" font-weight="normal" text-anchor="start"><tspan x="0" dy="0">李天宇</tspan></text><path d="M256.30423,203.8c2.4,-0.5 5.3,-1.3 7.7,-3.5c5.5,-4.9 7.2,-13 11,-10.9c3.9,2.1 3.8,15.2 -8.4,19.2c-4.2,1.4 -8,1.4 -11.1,1.3c-0.8,0 -7.7,-0.7 -10.1,-4.1c-2.4,-3.4 -0.7,-4.3 0.1,-4.7c0.9,-0.5 7.4,3.3 10.8,2.7z" fill="#ffab19" fill-rule="evenodd" stroke="#001026" stroke-width="1.2" stroke-linecap="round" stroke-linejoin="round"/><path d="M274.40423,189.6c2,0.6 3,4.8 2,8.3c-1,3.5 -2.6,5.3 -3.9,6.6c0.2,-0.7 0.6,-2.9 -1.1,-4.2c-2.1,-1.7 -5.8,-0.8 -5.8,-0.8c0,0 3.1,-3.8 4.7,-6.5c1.6,-2.3 2.1,-3.8 4.1,-3.4z" fill="#ffffff" fill-rule="evenodd" stroke="none" stroke-width="1" stroke-linecap="butt" stroke-linejoin="miter"/><path d="M240.20423,204.6c3.7,-3.2 8.3,0.5 10.3,2c2,1.5 3,2.4 7.3,4.6c1.7,0.9 3.9,1.7 5.1,2.1c0.5,0.1 1,0.1 1.5,-0.1c0.9,-0.4 2.6,-1.1 4.5,0.3c4.2,3.7 -5.7,17.8 -11,16.1c-5.5,-1.7 -2.4,-6.5 -0.7,-8.9c0.2,-0.4 0,-0.9 -0.4,-1l-0.4,-0.1c-7.9,-2.5 -14.1,-6.9 -15.9,-8.1c-1.7,-1.2 -3.5,-4.2 -0.3,-6.9z" fill="#ffab19" fill-rule="evenodd" stroke="#001026" stroke-width="1.2" stroke-linecap="round" stroke-linejoin="round"/><path d="M229.80423,192.7c0,2.6 -2.1,5.3 -3.3,6.9c-1.2,1.6 -6.8,7.5 -13.7,4.4c-2.9,-1.5 -9.7,-7.1 -6.1,-10.4c3.6,-3.3 6.9,0.8 9.3,2.9c2,1.8 8.1,-5.4 8.6,-5.8c1.7,-1.5 5.1,-0.8 5.2,2z" fill="#ffab19" fill-rule="evenodd" stroke="#001026" stroke-width="1.2" stroke-linecap="round" stroke-linejoin="round"/><path d="M232.00423,206.7c-1.2,-0.9 -2.4,-2.4 -4,-4.7c-1.3,-1.9 -2.7,-5.6 -2.7,-5.6c-0.9,-2.5 -1.5,-7.3 1.8,-7.2c2.2,0.1 4.2,-0.2 7.6,-0.7c6,-1.2 7.1,-2 9.6,2.1c2.7,4.8 9.6,8.3 1.1,16.6c0,0 -4.9,3.8 -10.8,9.6c-4,3.9 -10.3,9.5 -12.5,11.4c-0.5,0.4 -1.1,0.6 -1.7,0.7c-9.7,0.9 -16.9,-0.1 -16.9,-4.4c0,-7.2 14.3,-4.7 14.3,-4.7c0,0 4.6,-3.9 6.7,-5.8z" fill="#ffab19" fill-rule="evenodd" stroke="#001026" stroke-width="1.2" stroke-linecap="round" stroke-linejoin="round"/><path d="M227.60423,200c0,0 -1.9,-2.5 2.4,-5.2c4.5,-2.9 6.2,0.3 8,2.7c2,3.1 0,4.6 -2,6.4c-1.6,1.5 -3.1,2.7 -3.1,2.7c0,0 -3.1,-2.1 -5.3,-6.6z" fill="#ffffff" fill-rule="evenodd" stroke="none" stroke-width="1" stroke-linecap="butt" stroke-linejoin="miter"/><path d="M247.90423,196.8c-1.1,-0.7 -2.6,-1.9 -4.1,-3c-2.5,-1.8 -6.1,-5.8 -1.1,-7.6c4,-1.5 7.6,1.3 11.9,4.4c2.2,1.7 4.8,3.7 3.9,6.8c-1,3.5 -5.9,13.5 -11.8,10.2c-4.3,-2.9 -0.9,-6.4 1.3,-9.2c0.3,-0.5 0.2,-1.1 -0.1,-1.6z" fill="#ffab19" fill-rule="evenodd" stroke="#001026" stroke-width="1.2" stroke-linecap="round" stroke-linejoin="round"/><path d="M223.20423,164c0,1.6 -4.2,4.1 -6,3.9c-1.6,-0.1 -3.1,-2.9 -3,-4.3c0.1,-0.7 2.3,-0.9 4.4,-0.9c2,0 4.7,0.1 4.6,1.3z" fill="#001026" fill-rule="evenodd" stroke="#001026" stroke-width="1.2" stroke-linecap="round" stroke-linejoin="round"/><path d="M225.10423,139c2.3,-0.4 4.7,-0.6 7.5,-0.4c4.7,0.2 9.2,1.9 9.2,1.9l12.1,-7.9c0.4,-0.2 0.9,0.1 0.8,0.5l-2.1,17.9c-0.6,-0.8 10.6,12.8 3.5,24.2c-7.1,11.4 -22.2,16.5 -41,12.8c-18.8,-3.7 -23.2,-14.5 -22,-20.2c1.2,-5.7 8.3,-7.8 8.3,-7.8c0,0 0.1,-4.5 3.3,-10c1.9,-3.3 8.3,-8 8.3,-8l2.6,-10.7c0.1,-0.4 0.6,-0.5 0.9,-0.3z" fill="#ffab19" fill-rule="evenodd" stroke="#001026" stroke-width="1.2" stroke-linecap="butt" stroke-linejoin="miter"/><path d="M218.20423,165.3c8.4,0.6 19.9,-8.5 26.6,2.2c6.7,10.6 -4.8,25 -29,20c-18.6,-3.6 -23.4,-13.9 -22.2,-19.6c1.2,-5.7 8.1,-7.5 8.1,-7.5c8.5,-1.9 9.3,4.4 16.5,4.9z" fill="#ffffff" fill-rule="evenodd" stroke="none" stroke-width="1" stroke-linecap="butt" stroke-linejoin="miter"/><path d="M208.82842,180.15394c0.51305,-4.88229 2.45729,-11.04589 11.59752,-10.52983c10.45497,1.14169 12.96464,9.16613 13.40655,11.97766c0.11471,0.52615 -0.36234,0.95325 -0.83897,0.77208c-1.42988,-0.54352 -4.53644,-1.3677 -9.91188,-1.9633c-5.98371,-0.59604 -11.57376,0.09053 -13.56325,0.46724c-0.41104,0.03259 -0.75602,-0.32934 -0.68998,-0.72385z" fill="#ffffff" fill-rule="evenodd" stroke="#001026" stroke-width="1.2" stroke-linecap="round" stroke-linejoin="round"/><path d="M217.20423,146.2c2.8,1.8 2.7,6.9 -0.2,11.4c-3,4.5 -7.6,6.6 -10.4,4.8c-2.8,-1.8 -2.7,-6.9 0.2,-11.4c2.9,-4.5 7.6,-6.7 10.4,-4.8z" fill="#ffffff" fill-rule="evenodd" stroke="#001026" stroke-width="1.2" stroke-linecap="round" stroke-linejoin="round"/><path d="M207.20423,156.7c0,-1.1 0.8,-2 1.8,-2c1,0 1.8,0.9 1.8,2c0,1.1 -0.8,2 -1.8,2c-1,0 -1.8,-0.9 -1.8,-2" fill="#001026" fill-rule="evenodd" stroke="none" stroke-width="1" stroke-linecap="butt" stroke-linejoin="miter"/><path d="M242.40423,149.3c3.1,2.2 2.9,7.9 -0.2,12.3c-3,4.4 -7.4,5.8 -10.7,3.9c-2.7,-1.9 -2.9,-7.3 0.1,-11.7c3,-4.4 7.7,-6.8 10.8,-4.5z" fill="#ffffff" fill-rule="evenodd" stroke="#001026" stroke-width="1.2" stroke-linecap="round" stroke-linejoin="round"/><path d="M232.20423,159.6c0,-1.1 0.8,-1.9 1.8,-2c1,0 1.8,0.9 1.8,2c0,1.1 -0.8,2 -1.8,2c-1,0 -1.8,-0.9 -1.8,-2" fill="#001026" fill-rule="evenodd" stroke="none" stroke-width="1" stroke-linecap="butt" stroke-linejoin="miter"/></g></g></svg>